<?xml version="1.0" encoding="UTF-8"?><svg id="Layer_2" xmlns="http://www.w3.org/2000/svg" viewBox="0 0 110.34 78.77"><defs><style>.cls-1{fill:#b6977d;stroke-width:0px;}</style></defs><g id="Layer_1-2"><path class="cls-1" d="m35.06,78.33c9.52.74,51.77.4,54.56,0s5.58-7.57,8.36-10.35,9.02-4.38,9.88-9.16c.87-4.78,5.11-28.67,0-34.65-5.11-5.97-12.16-10.89-13.16-12.18s-4.43-7.28-7.14-8.85S54.73,0,50.87,0,20.46,7.28,18.18,8.14s-5.43,11.28-6.14,13.14-6.28,4.85-7.71,5.85S.47,49.55.04,52.83c-.43,3.28,2.43,8.42,4.14,9.71s10.86,2.76,12.01,3.62,4.51,3.63,6.33,6.38c1.53,2.3,8.49,5.48,12.54,5.79Z"/></g></svg>